# xmcd
#
# Track frame offsets: 
#        150
#        12045
#        22855
#        31760
#        46832
#        57335
#        64945
#        73875
#        83625
#        93585
#        104460
#        115552
#        125715
#        135102
#        143327
#        151745
#        163045
#        173660
#        184565
#        195777
#        208032
#        216802
#        224087
#        233587
#        242327
#        251230
#        261415
#        273375
#        282887
#        293115
#        302685
#        312795
#
# Disc length: 4308 seconds
#
# Revision: 5
# Processed by: cddbd v1.5.2PL0 Copyright (c) Steve Scherf et al.
# Submitted via: ExactAudioCopy v1.0b1
#
DISCID=b610d220
DTITLE=Various Artist - The World's Greatest Bluegrass Bands
DYEAR=1900
DGENRE=
TTITLE0=The Osborne Brothers - Georgia Mules and Country Boys
TTITLE1=Joe Maphis and His Super-Picker Pals - Orange Blossom Special
TTITLE2=Carl Story and His Rambling Mountaineers - Buck Creek [Instrumen
TTITLE2=tal]
TTITLE3=Benny Martin - Wabash Cannonball
TTITLE4=Josh Graves - Little Maggie
TTITLE5=The Jones Brothers and The Log Cabin Boys - Billy Boy
TTITLE6=Lester Flatt and The Nashville Grass - Dixie Flyer (Instrumental
TTITLE6=)
TTITLE7=Crossroads - Remembering
TTITLE8=Mac Wiseman and The Shenandoah Cut-Ups - The Wreck of the Old 97
TTITLE9=Benny Martin - Mule Skinner Blues
TTITLE10=Don Reno and Bill Harrell and The Tennesee Cut-Ups - Long Gone
TTITLE11=Arthur Smith - Conversation With a Mule
TTITLE12=The Stonemans - Soldier's Joy [Instrumental]
TTITLE13=Carl Story and His Rambling Mountaineers - I'm Rollin' On
TTITLE14=Benny Martin and His Electric Turkeys - Who's Gonna Hold You Wh
TTITLE14=en I'm Gone?
TTITLE15=Lester Flatt and The Nashville Grass - Goin' Up Cripple Creek
TTITLE16=Lester Flatt and The Nashville Grass - Good Times Are Past and 
TTITLE16=Gone
TTITLE17=The Smith Brothers Bluegrass Orchestra - Little Footprints in
TTITLE17=the Snow [Instrumental]
TTITLE18=Mac Wiseman - Rainy Day People
TTITLE19=Don Reno and Bill Harrell and The Tennesee Cut-Ups - I Want to Go
TTITLE19=Back to the Mountains
TTITLE20=Ralph Smith - Bury Me Beneath the Willow
TTITLE21=Benny Martin and Arthur Smith - Ragtime Annie [Instrumental]
TTITLE22=The IInd Generation - Goin' Home in the Rain
TTITLE23=Carl Story and His Rambling Mountaineers - Shout And Shine
TTITLE24=Don Reno and Bill Harrell and The Tennesee Cut-Ups - B.G. Chase [
TTITLE24=Instrumental]
TTITLE25=The Osborne Brothers - Bent, Broken and Blue
TTITLE26=The Stonemans - Watermelon on the Vine
TTITLE27=Josh Graves and Bobby Smith and The Boys From Shiloh - Crossin' t
TTITLE27=he Rockies [Instrumental]
TTITLE28=Grandpa Jones and Ramona - Rosalee
TTITLE29=Benny Martin - Back Up and Push [Instrumental]
TTITLE30=The Jones Brothers and The Log Cabin Boys - Jesse James
TTITLE31=Mac Wiseman - I Wonder Where You Are Tonight
EXTD=c 1989 CMH Records\n\nLester Flatt  -  Performer \nJosh Graves  -
EXTD=Performer \nOsborne Brothers  -  Performer \nCarl Story  -  Per
EXTD=former \nMac Wiseman  -  Performer \nJoe Maphis  -  Performer \nB
EXTD=enny Martin  -  Performer \nCrossroads  -  Performer \nBill Harre
EXTD=ll  -  Performer \nArthur "Guitar Boogie" Smith  -  Performer \nD
EXTD=on Reno  -  Performer \nRon McMaster  -  Mastering \nRalph Smith 
EXTD= Performer \nWoody Woodward  -  Design \nMartin Haerle  -  Pro
EXTD=ducer \nThe Jones Brothers  -  Performer \nBobby Smith  -  Perfor
EXTD=mer \nSmith Brothers Bluegrass Orchestra  -  Performer \nllnd Gen
EXTD=eration  -  Performer \nThe Stonemans  -  Performer
EXTT0=AMG Review\n\nWorld's Greatest Bluegrass is a terrific 32-track 
EXTT0=collection that features reprsentative selections from many of t
EXTT0=he biggest names in bluegrass. Bill Monroe may be missing, but C
EXTT0=arl Story, the Osborne Brothers, Joe Maphis, Mac Wiseman, Lester
EXTT0=Flatt and the Jones Brothers are nothing to sneeze at, either. 
EXTT0=It may not be a perfect collection and it shouldn't be seen as a
EXTT0=definitive history of the genre, but it's entertaining nonethel
EXTT0=ess.  Thom Owens
EXTT1=
EXTT2=
EXTT3=
EXTT4=
EXTT5=
EXTT6=
EXTT7=
EXTT8=
EXTT9=
EXTT10=
EXTT11=
EXTT12=
EXTT13=
EXTT14=
EXTT15=
EXTT16=
EXTT17=
EXTT18=
EXTT19=
EXTT20=
EXTT21=
EXTT22=
EXTT23=
EXTT24=
EXTT25=
EXTT26=
EXTT27=
EXTT28=
EXTT29=
EXTT30=
EXTT31=
PLAYORDER=
